# xmcd CD database file
#
# Track frame offsets:
#	150
#	27915
#	47903
#	69372
#	86658
#	108011
#	148514
#	184966
#	200548
#
# Disc length: 2934 seconds
#
# Revision: 0
# Processed by: cddbd v1.5.2PL0 Copyright (c) Steve Scherf et al.
# Submitted via: CDex 1.51
#
DISCID=790b7409
DTITLE=Bill McHenry - Roses
DYEAR=2007
DGENRE=Jazz
TTITLE0=Roses
TTITLE1=African Song
TTITLE2=The Abyss Opens Up
TTITLE3=The City
TTITLE4=The New One
TTITLE5=The Lizard
TTITLE6=Keys Of C
TTITLE7=Symphony
TTITLE8=Photo-Synthetic
EXTD=YEAR: 2007
EXTT0=
EXTT1=
EXTT2=
EXTT3=
EXTT4=
EXTT5=
EXTT6=
EXTT7=
EXTT8=
PLAYORDER=
